<svg width="48" height="40" viewBox="0 0 48 40" fill="none" xmlns="http://www.w3.org/2000/svg">
<path d="M33.5577 32.9222L31.6244 31.1622C24.7577 24.9356 20.2244 20.8289 20.2244 15.7889C20.2244 11.6822 23.451 8.45557 27.5577 8.45557C29.8777 8.45557 32.1044 9.53557 33.5577 11.2422C35.011 9.53557 37.2377 8.45557 39.5577 8.45557C43.6644 8.45557 46.891 11.6822 46.891 15.7889C46.891 20.8289 42.3577 24.9356 35.491 31.1756L33.5577 32.9222Z" fill="url(#paint0_linear_304_1384)"/>
<path d="M8.64451 8.03105L9.92283 7.05235L12.5114 8.31471L13.1743 10.2402L20.293 13.7115L17.1371 20.1829L14.6095 18.9503C14.585 19.0779 14.5435 19.2044 14.4838 19.3268L7.42419 33.8033C7.06107 34.5479 6.16309 34.8571 5.41848 34.494C4.67387 34.1309 4.36462 33.2329 4.72774 32.4883L11.7874 18.0118C11.8471 17.8894 11.9212 17.7788 12.0067 17.681L10.0185 16.7114L8.09319 17.3747L5.50458 16.1124L5.48861 14.5025L8.64451 8.03105Z" fill="#808080"/>
<path d="M24.8071 14.311L22.2185 13.0486L20.293 13.7115L17.1371 20.1829L17.8003 22.1086L20.3888 23.371L24.8071 14.311Z" fill="#808080"/>
<path d="M24.8071 14.311L24.8232 15.9209L21.6673 22.3924L20.3888 23.371L24.8071 14.311Z" fill="#808080"/>
<defs>
<linearGradient id="paint0_linear_304_1384" x1="46.891" y1="20.6889" x2="20.2244" y2="20.6889" gradientUnits="userSpaceOnUse">
<stop stop-color="#F5576C"/>
<stop offset="1" stop-color="#F093FB"/>
</linearGradient>
</defs>
</svg>
